<svg xmlns="http://www.w3.org/2000/svg" xmlns:xlink="http://www.w3.org/1999/xlink" width="474" zoomAndPan="magnify" viewBox="0 0 355.5 123.750003" height="165" preserveAspectRatio="xMidYMid meet" version="1.0"><defs><g/><clipPath id="92e71f7fee"><path d="M 0.109375 0 L 354.890625 0 L 354.890625 123.5 L 0.109375 123.5 Z M 0.109375 0 " clip-rule="nonzero"/></clipPath><clipPath id="a19d35533d"><path d="M 189.710938 48.601562 L 233.066406 48.601562 L 233.066406 91.953125 L 189.710938 91.953125 Z M 189.710938 48.601562 " clip-rule="nonzero"/></clipPath><clipPath id="0248f1b185"><path d="M 211.386719 48.601562 C 223.359375 48.601562 233.066406 58.304688 233.066406 70.277344 C 233.066406 82.25 223.359375 91.953125 211.386719 91.953125 C 199.417969 91.953125 189.710938 82.25 189.710938 70.277344 C 189.710938 58.304688 199.417969 48.601562 211.386719 48.601562 L 211.386719 57.273438 C 204.207031 57.273438 198.382812 63.09375 198.382812 70.277344 C 198.382812 77.460938 204.207031 83.285156 211.386719 83.285156 C 218.570312 83.285156 224.394531 77.460938 224.394531 70.277344 C 224.394531 63.09375 218.570312 57.273438 211.386719 57.273438 Z M 211.386719 48.601562 " clip-rule="nonzero"/></clipPath><clipPath id="3aacbd009b"><path d="M 194.285156 49.109375 L 233.234375 49.109375 L 233.234375 92 L 194.285156 92 Z M 194.285156 49.109375 " clip-rule="nonzero"/></clipPath><clipPath id="c0ef23a638"><path d="M 216.808594 49.289062 C 225.730469 51.59375 232.222656 59.289062 232.988281 68.472656 C 233.757812 77.660156 228.632812 86.324219 220.214844 90.078125 C 211.796875 93.828125 201.925781 91.847656 195.605469 85.136719 C 193.964844 83.394531 194.046875 80.652344 195.792969 79.007812 C 197.535156 77.367188 200.277344 77.449219 201.917969 79.195312 C 205.710938 83.21875 211.632812 84.410156 216.683594 82.15625 C 221.734375 79.90625 224.808594 74.707031 224.347656 69.195312 C 223.890625 63.683594 219.996094 59.066406 214.640625 57.683594 C 213.140625 57.296875 211.960938 56.140625 211.546875 54.648438 C 211.132812 53.15625 211.546875 51.554688 212.628906 50.449219 C 213.714844 49.34375 215.308594 48.902344 216.808594 49.289062 Z M 216.808594 49.289062 " clip-rule="nonzero"/></clipPath></defs><g clip-path="url(#92e71f7fee)"><path fill="transparent" d="M 0.109375 0 L 354.890625 0 L 354.890625 123.5 L 0.109375 123.5 Z M 0.109375 0 " fill-opacity="1" fill-rule="nonzero"/></g><g clip-path="url(#a19d35533d)"><g clip-path="url(#0248f1b185)"><path fill="#ffde59" d="M 189.710938 48.601562 L 233.066406 48.601562 L 233.066406 91.953125 L 189.710938 91.953125 Z M 189.710938 48.601562 " fill-opacity="1" fill-rule="nonzero"/></g></g><g clip-path="url(#3aacbd009b)"><g clip-path="url(#c0ef23a638)"><path fill="#008589" d="M 189.710938 48.601562 L 233.066406 48.601562 L 233.066406 91.953125 L 189.710938 91.953125 Z M 189.710938 48.601562 " fill-opacity="1" fill-rule="nonzero"/></g></g><g fill="#008589" fill-opacity="1"><g transform="translate(17.998328, 89.164879)"><g><path d="M 27.546875 0.75 C 22.515625 0.75 18.773438 -1.128906 16.328125 -4.890625 L 15.578125 -4.75 L 15.578125 0 L 5.671875 0 L 5.671875 -55.21875 L 15.578125 -55.21875 L 15.578125 -34.75 L 16.328125 -34.609375 C 17.679688 -36.492188 19.28125 -37.890625 21.125 -38.796875 C 22.96875 -39.703125 25.175781 -40.15625 27.75 -40.15625 C 30.945312 -40.15625 33.734375 -39.40625 36.109375 -37.90625 C 38.492188 -36.40625 40.351562 -34.125 41.6875 -31.0625 C 43.019531 -28 43.6875 -24.207031 43.6875 -19.6875 C 43.6875 -15.207031 42.992188 -11.4375 41.609375 -8.375 C 40.234375 -5.3125 38.328125 -3.023438 35.890625 -1.515625 C 33.460938 -0.00390625 30.679688 0.75 27.546875 0.75 Z M 24.546875 -7.640625 C 27.441406 -7.640625 29.648438 -8.609375 31.171875 -10.546875 C 32.703125 -12.492188 33.46875 -15.539062 33.46875 -19.6875 C 33.46875 -23.851562 32.703125 -26.90625 31.171875 -28.84375 C 29.648438 -30.78125 27.441406 -31.75 24.546875 -31.75 C 21.753906 -31.75 19.539062 -30.75 17.90625 -28.75 C 16.28125 -26.75 15.46875 -23.726562 15.46875 -19.6875 C 15.46875 -15.632812 16.28125 -12.613281 17.90625 -10.625 C 19.539062 -8.632812 21.753906 -7.640625 24.546875 -7.640625 Z M 24.546875 -7.640625 "/></g></g></g><g fill="#008589" fill-opacity="1"><g transform="translate(65.183445, 89.164879)"><g><path d="M 10.609375 -44.109375 C 8.828125 -44.109375 7.375 -44.648438 6.25 -45.734375 C 5.132812 -46.816406 4.578125 -48.21875 4.578125 -49.9375 C 4.578125 -51.625 5.132812 -53.007812 6.25 -54.09375 C 7.375 -55.175781 8.828125 -55.71875 10.609375 -55.71875 C 11.796875 -55.71875 12.851562 -55.46875 13.78125 -54.96875 C 14.71875 -54.46875 15.441406 -53.78125 15.953125 -52.90625 C 16.460938 -52.039062 16.71875 -51.050781 16.71875 -49.9375 C 16.71875 -48.820312 16.460938 -47.820312 15.953125 -46.9375 C 15.441406 -46.050781 14.71875 -45.359375 13.78125 -44.859375 C 12.851562 -44.359375 11.796875 -44.109375 10.609375 -44.109375 Z M 5.671875 0 L 5.671875 -39.40625 L 15.578125 -39.40625 L 15.578125 0 Z M 5.671875 0 "/></g></g></g><g fill="#008589" fill-opacity="1"><g transform="translate(86.400671, 89.164879)"><g><path d="M 33.078125 0 L 2.078125 0 L 2.078125 -8.1875 L 21.140625 -30.828125 L 20.9375 -31.578125 L 2.96875 -31.578125 L 2.96875 -39.4375 L 32.796875 -39.4375 L 32.796875 -31.25 L 13.71875 -8.609375 L 13.96875 -7.859375 L 33.078125 -7.859375 Z M 33.078125 0 "/></g></g></g><g fill="#008589" fill-opacity="1"><g transform="translate(121.5484, 89.164879)"><g><path d="M 5.671875 0 L 5.671875 -39.40625 L 15.1875 -39.40625 L 15.1875 -34.109375 L 15.9375 -33.96875 C 17.21875 -36.09375 18.722656 -37.65625 20.453125 -38.65625 C 22.179688 -39.65625 24.390625 -40.15625 27.078125 -40.15625 C 30.054688 -40.15625 32.445312 -39.5625 34.25 -38.375 C 36.0625 -37.195312 37.382812 -35.476562 38.21875 -33.21875 L 38.96875 -33.21875 C 40.1875 -35.570312 41.753906 -37.316406 43.671875 -38.453125 C 45.585938 -39.585938 47.972656 -40.15625 50.828125 -40.15625 C 58.992188 -40.15625 63.078125 -35.601562 63.078125 -26.5 L 63.078125 0 L 53.1875 0 L 53.1875 -25.25 C 53.1875 -27.5625 52.734375 -29.226562 51.828125 -30.25 C 50.921875 -31.28125 49.46875 -31.796875 47.46875 -31.796875 C 42.039062 -31.796875 39.328125 -28.160156 39.328125 -20.890625 L 39.328125 0 L 29.4375 0 L 29.4375 -25.25 C 29.4375 -27.5625 28.976562 -29.226562 28.0625 -30.25 C 27.144531 -31.28125 25.6875 -31.796875 23.6875 -31.796875 C 21.132812 -31.796875 19.144531 -30.941406 17.71875 -29.234375 C 16.289062 -27.535156 15.578125 -24.828125 15.578125 -21.109375 L 15.578125 0 Z M 5.671875 0 "/></g></g></g><g fill="#008589" fill-opacity="1"><g transform="translate(231.119259, 89.164879)"><g><path d="M 5.671875 0 L 5.671875 -39.40625 L 15.1875 -39.40625 L 15.1875 -33.609375 L 15.9375 -33.4375 C 18.382812 -37.914062 22.359375 -40.15625 27.859375 -40.15625 C 32.410156 -40.15625 35.75 -38.914062 37.875 -36.4375 C 40.007812 -33.957031 41.078125 -30.347656 41.078125 -25.609375 L 41.078125 0 L 31.1875 0 L 31.1875 -24.390625 C 31.1875 -27.015625 30.660156 -28.90625 29.609375 -30.0625 C 28.566406 -31.21875 26.890625 -31.796875 24.578125 -31.796875 C 21.742188 -31.796875 19.535156 -30.878906 17.953125 -29.046875 C 16.367188 -27.210938 15.578125 -24.328125 15.578125 -20.390625 L 15.578125 0 Z M 5.671875 0 "/></g></g></g><g fill="#008589" fill-opacity="1"><g transform="translate(277.268513, 89.164879)"><g><path d="M 5.671875 0 L 5.671875 -55.21875 L 15.578125 -55.21875 L 15.578125 -24.578125 L 16.53125 -24.578125 L 27.9375 -39.40625 L 37.96875 -39.40625 L 37.96875 -38.578125 L 24.578125 -21.296875 L 39.46875 -0.890625 L 39.46875 0 L 29.046875 0 L 16.53125 -16.609375 L 15.578125 -16.609375 L 15.578125 0 Z M 5.671875 0 "/></g></g></g><g fill="#ffde59" fill-opacity="1"><g transform="translate(316.821122, 89.164879)"><g><path d="M 10.078125 0.328125 C 8.816406 0.328125 7.703125 0.0703125 6.734375 -0.4375 C 5.765625 -0.957031 5.023438 -1.664062 4.515625 -2.5625 C 4.003906 -3.46875 3.75 -4.492188 3.75 -5.640625 C 3.75 -6.785156 4.003906 -7.8125 4.515625 -8.71875 C 5.023438 -9.625 5.765625 -10.335938 6.734375 -10.859375 C 7.703125 -11.378906 8.816406 -11.640625 10.078125 -11.640625 C 11.359375 -11.640625 12.476562 -11.382812 13.4375 -10.875 C 14.40625 -10.363281 15.144531 -9.65625 15.65625 -8.75 C 16.175781 -7.84375 16.4375 -6.816406 16.4375 -5.671875 C 16.4375 -3.941406 15.859375 -2.507812 14.703125 -1.375 C 13.546875 -0.238281 12.003906 0.328125 10.078125 0.328125 Z M 10.078125 0.328125 "/></g></g></g></svg>