<?xml version="1.0" encoding="UTF-8"?><svg id="Layer_1" xmlns="http://www.w3.org/2000/svg" viewBox="0 0 142.8 54"><defs><style>.cls-1{fill:#9f1c2f;}.cls-2{fill:#d0191d;}.cls-3{fill:#345fa8;}</style></defs><path d="M48.33,22.65c0-3.3-1.8-6.22-4.72-7.57-.97-.45-2.62-.97-6.37-.97h-6.82v26.08h3.3V17.11h4.05c2.02,0,3.3,.15,4.8,.9,1.5,.75,2.55,2.62,2.55,4.57s-1.05,4.2-3.9,5.02c-1.12,.3-2.17,.37-5.32,.37h-.75l9.14,12.21h4.12l-7.19-9.52c4.65-.67,7.12-4.42,7.12-8.02"/><polygon points="52.08 40.19 66.69 40.19 66.69 37.11 55.37 37.11 55.37 28.5 66.31 28.5 66.31 25.5 55.37 25.5 55.37 17.11 66.69 17.11 66.69 14.03 52.08 14.03 52.08 40.19"/><path d="M80.4,14.03l-11.16,26.08h3.45l3.67-8.54h11.31l3.67,8.54h3.6l-11.24-26.08h-3.3Zm5.99,14.54h-8.69l4.42-10.34,4.27,10.34Z"/><path d="M22.93,32.39c-1.8,3.07-5.17,5.17-9.07,5.17-5.69,0-10.49-4.72-10.49-10.34s4.72-10.57,10.49-10.57c3.97,0,7.34,2.25,9.14,5.47h3.6c-2.02-4.95-6.97-8.47-12.81-8.47C7.19,13.66,0,18.9,0,27.3c0,7.27,6.29,13.34,13.79,13.34,5.69,0,10.57-3.37,12.66-8.24h-3.52Z"/><g><rect class="cls-3" x="106.25" y="3.96" width="19.11" height="19.11" transform="translate(24.36 85.84) rotate(-45)"/><rect class="cls-2" x="106.25" y="30.94" width="19.11" height="19.11" transform="translate(5.29 93.74) rotate(-45)"/><rect class="cls-1" x="119.74" y="17.45" width="19.11" height="19.11" transform="translate(18.77 99.33) rotate(-45)"/></g></svg>